<svg width="42" height="42" viewBox="0 0 42 42" fill="none" xmlns="http://www.w3.org/2000/svg">
<path d="M18.9 4.19995C16.6721 4.19995 14.5356 5.08495 12.9603 6.66025C11.3849 8.23556 10.5 10.3721 10.5 12.6C10.5 14.8278 11.3849 16.9643 12.9603 18.5396C14.5356 20.115 16.6721 21 18.9 21C21.1278 21 23.2643 20.115 24.8396 18.5396C26.415 16.9643 27.3 14.8278 27.3 12.6C27.3 10.3721 26.415 8.23556 24.8396 6.66025C23.2643 5.08495 21.1278 4.19995 18.9 4.19995ZM8.41885 23.1C7.86579 23.0977 7.31773 23.2047 6.8061 23.4148C6.29448 23.6248 5.82935 23.9338 5.4374 24.324C5.04544 24.7142 4.73437 25.178 4.52202 25.6886C4.30967 26.1993 4.20022 26.7469 4.19995 27.3C4.19995 30.8511 5.94925 33.5286 8.68345 35.2737C11.3757 36.9894 15.0045 37.8 18.9 37.8C19.761 37.8 20.6136 37.7601 21.441 37.6803C19.7923 35.6315 18.8955 33.0797 18.9 30.45C18.9 27.657 19.8912 25.095 21.5397 23.1H8.41885ZM30.45 39.9C32.9562 39.9 35.3599 38.9043 37.1321 37.1321C38.9043 35.3599 39.9 32.9562 39.9 30.45C39.9 27.9437 38.9043 25.54 37.1321 23.7678C35.3599 21.9956 32.9562 21 30.45 21C27.9437 21 25.54 21.9956 23.7678 23.7678C21.9956 25.54 21 27.9437 21 30.45C21 32.9562 21.9956 35.3599 23.7678 37.1321C25.54 38.9043 27.9437 39.9 30.45 39.9ZM30.45 25.2C30.7284 25.2 30.9955 25.3106 31.1924 25.5075C31.3893 25.7044 31.5 25.9715 31.5 26.25V29.4H34.65C34.9284 29.4 35.1955 29.5106 35.3924 29.7075C35.5893 29.9044 35.7 30.1715 35.7 30.45C35.7 30.7284 35.5893 30.9955 35.3924 31.1924C35.1955 31.3893 34.9284 31.5 34.65 31.5H31.5V34.65C31.5 34.9284 31.3893 35.1955 31.1924 35.3924C30.9955 35.5893 30.7284 35.7 30.45 35.7C30.1715 35.7 29.9044 35.5893 29.7075 35.3924C29.5106 35.1955 29.4 34.9284 29.4 34.65V31.5H26.25C25.9715 31.5 25.7044 31.3893 25.5075 31.1924C25.3106 30.9955 25.2 30.7284 25.2 30.45C25.2 30.1715 25.3106 29.9044 25.5075 29.7075C25.7044 29.5106 25.9715 29.4 26.25 29.4H29.4V26.25C29.4 25.9715 29.5106 25.7044 29.7075 25.5075C29.9044 25.3106 30.1715 25.2 30.45 25.2Z" fill="white"/>
</svg>
