<svg width="38" height="38" viewBox="0 0 38 38" fill="none" xmlns="http://www.w3.org/2000/svg">
<path d="M19.0001 36.4167C10.2015 34.4612 3.16675 26.1598 3.16675 17.4167V7.91666L19.0001 1.58333L34.8334 7.91666V17.4167C34.8334 26.163 27.7987 34.4612 19.0001 36.4167ZM6.33341 9.49999V17.4167C6.4239 21.0775 7.71149 24.6079 9.99911 27.4674C12.2867 30.327 15.4484 32.3581 19.0001 33.25C22.5518 32.3581 25.7134 30.327 28.001 27.4674C30.2887 24.6079 31.5763 21.0775 31.6667 17.4167V9.49999L19.0001 4.74999L6.33341 9.49999Z" fill="white"/>
<path d="M19.0001 17.4167C21.1862 17.4167 22.9584 15.6445 22.9584 13.4583C22.9584 11.2722 21.1862 9.5 19.0001 9.5C16.814 9.5 15.0417 11.2722 15.0417 13.4583C15.0417 15.6445 16.814 17.4167 19.0001 17.4167Z" fill="white"/>
<path d="M11.0833 23.75C11.8637 25.1722 13.0079 26.3614 14.399 27.196C15.79 28.0306 17.3778 28.4807 18.9999 28.5C20.622 28.4807 22.2098 28.0306 23.6009 27.196C24.9919 26.3614 26.1362 25.1722 26.9166 23.75C26.877 20.748 21.6251 19 18.9999 19C16.3605 19 11.1228 20.748 11.0833 23.75Z" fill="white"/>
</svg>
