<svg width="28" height="28" viewBox="0 0 28 28" fill="none" xmlns="http://www.w3.org/2000/svg">
<g clip-path="url(#clip0_438_334)">
<path d="M8.70674 9.44767L8.89341 9.43367C8.961 9.42714 9.02564 9.40588 9.08141 9.37184L9.08008 9.373C9.25874 9.912 9.47741 10.479 9.75074 11.0728C10.1014 11.8498 10.4467 12.488 10.8334 13.104L10.7801 13.0107C10.7481 13.4353 10.7094 13.8717 10.6587 14.294C10.6365 14.5432 10.5788 14.7889 10.4867 15.0255L10.4934 15.0045C10.4774 15.0103 10.4547 17.4312 10.4547 17.4312C10.4552 18.1823 10.7446 18.9115 11.2762 19.5013C11.8078 20.0911 12.5507 20.5072 13.3854 20.6827L13.4121 20.6873C13.4491 20.6031 13.5144 20.5306 13.5994 20.4794C13.6843 20.4282 13.7849 20.4007 13.8881 20.4003H14.6534C14.7556 20.4015 14.8551 20.4291 14.9396 20.4795C15.024 20.5299 15.0896 20.601 15.1281 20.6838L15.1294 20.6873C15.9712 20.5171 16.7226 20.1031 17.262 19.5126C17.8014 18.9221 18.0972 18.1895 18.1014 17.4335C18.1014 17.4335 18.0547 15.022 18.0307 15.0057C17.9513 14.7802 17.8968 14.5485 17.8681 14.3138L17.8667 14.2963C17.8201 13.8717 17.7894 13.4458 17.7454 13.013C18.0747 12.4927 18.4201 11.8557 18.7241 11.1988L18.7747 11.0752C19.0481 10.4813 19.2601 9.9155 19.4454 9.37534C19.5002 9.40937 19.564 9.43065 19.6307 9.43717H19.6321L19.8201 9.45117C20.0467 9.47217 20.2467 9.30884 20.2654 9.05567L20.4681 6.80284V6.8005C20.468 6.70985 20.4301 6.62233 20.3617 6.55427C20.2932 6.48622 20.1988 6.44229 20.0961 6.43067H20.0707C20.2483 5.25758 20.1383 4.06484 19.7481 2.93184L19.7654 2.99134C19.3893 2.26068 18.8174 1.62018 18.098 1.12421C17.3787 0.628231 16.5332 0.291414 15.6334 0.142337L15.5987 0.13767C15.1625 0.0611348 14.7195 0.0174197 14.2747 0.00700378H14.2467C13.7815 0.0142944 13.318 0.0603919 12.8627 0.14467L12.9107 0.13767C12.0114 0.283738 11.1651 0.616188 10.4427 1.10719C9.72036 1.5982 9.14292 2.23347 8.75874 2.95984L8.74408 2.99134C8.36021 4.11998 8.2579 5.3076 8.44408 6.47384L8.43874 6.43067C8.33572 6.44043 8.24041 6.48306 8.17105 6.55043C8.10168 6.61779 8.06313 6.70516 8.06274 6.79584V6.804L8.26541 9.05684C8.28408 9.31584 8.48674 9.47217 8.70541 9.45117L8.70674 9.44767Z" fill="white"/>
<path d="M28.5548 24.3577C28.4615 20.811 28.0561 20.0083 27.8375 19.4647C27.7508 19.2465 27.6801 17.7718 24.8961 16.8152C23.1895 16.2272 20.9868 16.2155 19.1228 15.526V17.444C19.1209 18.4273 18.7282 19.3794 18.012 20.1371C17.2959 20.8948 16.3009 21.4111 15.1975 21.5973L15.1668 21.602C15.1468 21.7055 15.0859 21.7995 14.9948 21.8678C14.9037 21.936 14.7881 21.9741 14.6681 21.9753H14.6441V23.422C14.6441 24.1009 14.9523 24.7519 15.5009 25.232C16.0495 25.712 16.7936 25.9817 17.5695 25.9817C18.3453 25.9817 19.0894 25.712 19.638 25.232C20.1866 24.7519 20.4948 24.1009 20.4948 23.422V22.4117C20.0921 22.36 19.725 22.181 19.463 21.9085C19.201 21.636 19.0621 21.289 19.0728 20.933C19.0834 20.577 19.2428 20.2368 19.5208 19.9766C19.7988 19.7165 20.176 19.5546 20.5812 19.5214C20.9865 19.4882 21.3915 19.5862 21.7198 19.7967C22.0481 20.0072 22.2768 20.3156 22.3627 20.6637C22.4486 21.0118 22.3858 21.3754 22.186 21.6856C21.9863 21.9959 21.6635 22.2314 21.2788 22.3475L21.2668 22.351V23.4768C21.2668 24.3352 20.8771 25.1583 20.1835 25.7653C19.4898 26.3722 18.5491 26.7132 17.5681 26.7132C16.5872 26.7132 15.6464 26.3722 14.9528 25.7653C14.2591 25.1583 13.8695 24.3352 13.8695 23.4768V23.4185V23.4208V21.9613C13.7553 21.9545 13.6471 21.9142 13.5624 21.8468C13.4777 21.7795 13.4214 21.6891 13.4028 21.5903V21.588C12.2982 21.4037 11.3012 20.889 10.5826 20.1321C9.86407 19.3752 9.46865 18.4233 9.46412 17.4393V15.5062C7.59212 16.2097 5.37612 16.2237 3.66012 16.8128C0.86812 17.7683 0.804121 19.2395 0.718787 19.4612C0.505454 20.0072 0.0947874 20.8063 0.00145412 24.3553C-0.0145459 24.822 0.00145419 25.5372 1.60945 26.1625C5.11079 27.3642 9.62145 27.7375 14.0681 28.0058H14.4948C18.9508 27.7398 23.4548 27.3677 26.9535 26.1625C28.5548 25.5407 28.5695 24.829 28.5548 24.3577ZM8.98012 22.911H7.31879V24.3705H6.13212V22.9157H4.47079V21.8773H6.13212V20.4237H7.31879V21.8773H8.98012V22.911Z" fill="white"/>
<path d="M21.6333 20.9592C21.6331 20.751 21.5385 20.5502 21.3701 20.4031C21.2018 20.2559 20.9736 20.1733 20.7356 20.1734C20.4977 20.1735 20.2695 20.2562 20.1013 20.4035C19.9331 20.5507 19.8386 20.7504 19.8386 20.9586C19.8386 21.1668 19.9331 21.3664 20.1013 21.5137C20.2695 21.6609 20.4977 21.7437 20.7356 21.7438C20.9736 21.7438 21.2018 21.6612 21.3701 21.5141C21.5385 21.367 21.6331 21.1674 21.6333 20.9592Z" fill="white"/>
</g>
<defs>
<clipPath id="clip0_438_334">
<rect width="28" height="28" fill="white"/>
</clipPath>
</defs>
</svg>
