<svg width="48" height="48" viewBox="0 0 48 48" fill="none" xmlns="http://www.w3.org/2000/svg">
<path d="M24 16.5C24 18.4891 23.2098 20.3968 21.8033 21.8033C20.3968 23.2098 18.4891 24 16.5 24C14.5109 24 12.6032 23.2098 11.1967 21.8033C9.79018 20.3968 9 18.4891 9 16.5C9 14.5109 9.79018 12.6032 11.1967 11.1967C12.6032 9.79018 14.5109 9 16.5 9C18.4891 9 20.3968 9.79018 21.8033 11.1967C23.2098 12.6032 24 14.5109 24 16.5ZM34.5 24C36.0913 24 37.6174 23.3679 38.7426 22.2426C39.8679 21.1174 40.5 19.5913 40.5 18C40.5 16.4087 39.8679 14.8826 38.7426 13.7574C37.6174 12.6321 36.0913 12 34.5 12C32.9087 12 31.3826 12.6321 30.2574 13.7574C29.1321 14.8826 28.5 16.4087 28.5 18C28.5 19.5913 29.1321 21.1174 30.2574 22.2426C31.3826 23.3679 32.9087 24 34.5 24ZM31.5 31.782V31.5C31.5022 29.8769 30.9756 28.2972 30 27H39.819C41.847 27 43.494 28.644 43.494 30.675C43.494 30.675 43.494 37.5 34.494 37.5C32.7 37.5 31.263 37.23 30.114 36.795C30.8306 35.4819 31.286 34.0424 31.455 32.556C31.473 32.37 31.485 32.211 31.491 32.079L31.5 31.782ZM28.5 31.5C28.5 30.3065 28.0259 29.1619 27.182 28.318C26.3381 27.4741 25.1935 27 24 27H9C7.80653 27 6.66193 27.4741 5.81802 28.318C4.97411 29.1619 4.5 30.3065 4.5 31.5V31.725C4.5 31.725 4.5 40.5 16.5 40.5C27.936 40.5 28.473 32.532 28.5 31.782V31.725V31.5Z" fill="white"/>
</svg>
