<svg width="25" height="24" viewBox="0 0 25 24" fill="none" xmlns="http://www.w3.org/2000/svg">
<path d="M5.6803 14.8721C5.6803 15.3643 6.06311 15.6924 6.69202 15.6924H9.39905C9.45374 16.9365 10.4381 18.044 11.8395 18.044C13.2408 18.044 14.2252 16.9434 14.2867 15.6924H16.9869C17.6158 15.6924 17.9987 15.3643 17.9987 14.8721C17.9987 14.209 17.3492 13.6279 16.7819 13.0537C16.3444 12.6094 16.235 11.7002 16.1735 10.9072C16.1119 8.39161 15.4352 6.75098 13.7262 6.12891C13.5006 5.28126 12.7965 4.61817 11.8395 4.61817C10.8824 4.61817 10.1852 5.28126 9.95276 6.12891C8.24377 6.75098 7.56702 8.39161 7.50549 10.9072C7.45081 11.7002 7.33459 12.6094 6.89709 13.0537C6.32971 13.6279 5.6803 14.209 5.6803 14.8721ZM7.03381 14.6533V14.5713C7.17053 14.3867 7.55334 14.0176 7.88147 13.6416C8.33948 13.1289 8.55823 12.2607 8.61292 11.0098C8.67444 8.25489 9.50159 7.35938 10.5885 7.06544C10.7526 7.02442 10.8414 6.94923 10.8483 6.77833C10.8756 6.10841 11.2516 5.6504 11.8395 5.6504C12.4274 5.6504 12.8102 6.10841 12.8307 6.77833C12.8444 6.94923 12.9332 7.02442 13.0905 7.06544C14.1774 7.35938 15.0045 8.25489 15.066 11.0098C15.1276 12.2607 15.3395 13.1289 15.7975 13.6416C16.1324 14.0176 16.5084 14.3867 16.6383 14.5713V14.6533H7.03381ZM10.4791 15.6924H13.2067C13.1588 16.5469 12.6051 17.0938 11.8395 17.0938C11.0739 17.0938 10.527 16.5469 10.4791 15.6924Z" fill="white" fill-opacity="0.6"/>
</svg>
