<svg width="41" height="38" viewBox="0 0 41 38" fill="none" xmlns="http://www.w3.org/2000/svg">
<path d="M27.1438 15.0815C27.8109 14.4631 27.8109 13.4606 27.1438 12.8423C26.4767 12.224 25.395 12.224 24.7279 12.8423L27.1438 15.0815ZM13.8561 22.9186C13.189 23.5369 13.189 24.5395 13.8561 25.1577C14.5233 25.776 15.6049 25.776 16.2721 25.1577L13.8561 22.9186ZM24.7279 25.1577C25.395 25.776 26.4767 25.776 27.1438 25.1577C27.8109 24.5395 27.8109 23.5369 27.1438 22.9186L24.7279 25.1577ZM16.2721 12.8423C15.6049 12.224 14.5233 12.224 13.8561 12.8423C13.189 13.4606 13.189 14.4631 13.8561 15.0815L16.2721 12.8423ZM34.1666 19C34.1666 25.9956 28.0479 31.6667 20.5 31.6667V34.8333C29.9347 34.8333 37.5833 27.7444 37.5833 19H34.1666ZM20.5 31.6667C12.9521 31.6667 6.83329 25.9956 6.83329 19H3.41663C3.41663 27.7444 11.0651 34.8333 20.5 34.8333V31.6667ZM6.83329 19C6.83329 12.0044 12.9521 6.33334 20.5 6.33334V3.16667C11.0651 3.16667 3.41663 10.2555 3.41663 19H6.83329ZM20.5 6.33334C28.0479 6.33334 34.1666 12.0044 34.1666 19H37.5833C37.5833 10.2555 29.9347 3.16667 20.5 3.16667V6.33334ZM24.7279 12.8423L19.292 17.8804L21.7079 20.1196L27.1438 15.0815L24.7279 12.8423ZM19.292 17.8804L13.8561 22.9186L16.2721 25.1577L21.7079 20.1196L19.292 17.8804ZM27.1438 22.9186L21.7079 17.8804L19.292 20.1196L24.7279 25.1577L27.1438 22.9186ZM21.7079 17.8804L16.2721 12.8423L13.8561 15.0815L19.292 20.1196L21.7079 17.8804Z" fill="white"/>
</svg>
