<svg width="15" height="16" viewBox="0 0 15 16" fill="none" xmlns="http://www.w3.org/2000/svg">
<path d="M7.44261 15.29C11.4075 15.29 14.6614 12.0293 14.6614 8.06445C14.6614 4.10645 11.4006 0.845703 7.44261 0.845703C3.47777 0.845703 0.223862 4.10645 0.223862 8.06445C0.223862 12.0293 3.4846 15.29 7.44261 15.29ZM4.76292 11.4893C4.20921 11.7285 3.78539 11.3047 4.02464 10.751L5.74046 6.91602C5.86351 6.64258 6.04124 6.47168 6.30101 6.3623L10.1155 4.64648C10.6965 4.39355 11.1067 4.81738 10.8674 5.38477L9.1516 9.21289C9.03539 9.47266 8.85765 9.65039 8.59105 9.7666L4.76292 11.4893ZM7.44945 9.02832C7.97581 9.02832 8.39964 8.60449 8.39964 8.07812C8.39964 7.55176 7.97581 7.12109 7.44945 7.12109C6.92308 7.12109 6.49242 7.55176 6.49242 8.07812C6.49242 8.60449 6.92308 9.02832 7.44945 9.02832Z" fill="white"/>
</svg>
