<svg width="27" height="27" viewBox="0 0 27 27" fill="none" xmlns="http://www.w3.org/2000/svg">
<path d="M16.4531 13.5C16.4531 14.0841 16.2799 14.655 15.9554 15.1407C15.6309 15.6263 15.1697 16.0048 14.6301 16.2283C14.0905 16.4518 13.4967 16.5103 12.9239 16.3964C12.351 16.2824 11.8248 16.0012 11.4118 15.5882C10.9988 15.1752 10.7176 14.649 10.6036 14.0761C10.4897 13.5033 10.5482 12.9095 10.7717 12.3699C10.9952 11.8303 11.3737 11.3691 11.8593 11.0446C12.345 10.7201 12.9159 10.5469 13.5 10.5469C14.2832 10.5469 15.0344 10.858 15.5882 11.4118C16.142 11.9656 16.4531 12.7168 16.4531 13.5ZM13.5 8.01563C14.0841 8.01563 14.655 7.84243 15.1407 7.51794C15.6263 7.19344 16.0048 6.73223 16.2283 6.19261C16.4518 5.653 16.5103 5.05923 16.3964 4.48638C16.2824 3.91353 16.0012 3.38733 15.5882 2.97433C15.1752 2.56132 14.649 2.28007 14.0761 2.16612C13.5033 2.05217 12.9095 2.11065 12.3699 2.33417C11.8303 2.55768 11.3691 2.93619 11.0446 3.42183C10.7201 3.90747 10.5469 4.47843 10.5469 5.0625C10.5469 5.84572 10.858 6.59686 11.4118 7.15068C11.9656 7.70449 12.7168 8.01563 13.5 8.01563ZM13.5 18.9844C12.9159 18.9844 12.345 19.1576 11.8593 19.4821C11.3737 19.8066 10.9952 20.2678 10.7717 20.8074C10.5482 21.347 10.4897 21.9408 10.6036 22.5136C10.7176 23.0865 10.9988 23.6127 11.4118 24.0257C11.8248 24.4387 12.351 24.7199 12.9239 24.8339C13.4967 24.9478 14.0905 24.8893 14.6301 24.6658C15.1697 24.4423 15.6309 24.0638 15.9554 23.5782C16.2799 23.0925 16.4531 22.5216 16.4531 21.9375C16.4531 21.1543 16.142 20.4031 15.5882 19.8493C15.0344 19.2955 14.2832 18.9844 13.5 18.9844Z" fill="white"/>
</svg>
